<svg width="300" height="300" viewBox="0 0 300 300" fill="none" xmlns="http://www.w3.org/2000/svg">
  <path d="M300 0H0v300h300z" fill="#8E001F"/>
  <path d="M176.698 181.843c-1.263 9.345-4.06 16.149-8.39 20.322s-11.005 6.26-19.845 6.26c-8.66 0-15.336-2.813-19.846-8.347-3.879-4.717-6.044-11.431-6.676-20.321l85.337-40.009v-15.15c0-19.777-5.232-35.2-15.696-46.177C181.118 67.443 166.775 62 148.553 62c-17.771 0-31.844 5.534-42.127 16.42C96.142 89.399 91 104.822 91 124.599v50.169c0 20.049 5.052 35.563 15.245 46.631Q121.536 238 147.921 238c17.771 0 31.844-4.899 42.128-14.697s16.237-23.678 17.951-41.55h-31.302zm-55.027-57.517c0-11.25 2.345-19.687 7.036-25.13q7.036-8.165 20.026-8.165c18.673 0 27.965 11.068 27.965 33.204v3.992l-54.666 25.674-.361.091z" fill="#fff"/>
</svg>
